<mxfile host="app.diagrams.net" modified="2024-05-12T23:38:48.906Z" agent="Mozilla/5.0 (Windows NT 10.0; Win64; x64) AppleWebKit/537.36 (KHTML, like Gecko) Chrome/124.0.0.0 Safari/537.36" etag="ivFSsnY8K_ViK7yYPzHW" version="24.4.0" type="github">
  <diagram name="PÃ¡gina-1" id="lONQXSesQA3gklvUy75j">
    <mxGraphModel dx="1050" dy="603" grid="1" gridSize="10" guides="1" tooltips="1" connect="1" arrows="1" fold="1" page="1" pageScale="1" pageWidth="827" pageHeight="1169" math="0" shadow="0">
      <root>
        <mxCell id="0" />
        <mxCell id="1" parent="0" />
        <mxCell id="ScZe47sJM7jAqU2eX7d--1" style="edgeStyle=orthogonalEdgeStyle;rounded=0;orthogonalLoop=1;jettySize=auto;html=1;" edge="1" parent="1" source="ScZe47sJM7jAqU2eX7d--2" target="ScZe47sJM7jAqU2eX7d--4">
          <mxGeometry relative="1" as="geometry">
            <mxPoint x="414" y="170" as="targetPoint" />
          </mxGeometry>
        </mxCell>
        <mxCell id="ScZe47sJM7jAqU2eX7d--2" value="Inicio" style="strokeWidth=2;html=1;shape=mxgraph.flowchart.terminator;whiteSpace=wrap;" vertex="1" parent="1">
          <mxGeometry x="364" y="30" width="100" height="60" as="geometry" />
        </mxCell>
        <mxCell id="ScZe47sJM7jAqU2eX7d--3" style="edgeStyle=orthogonalEdgeStyle;rounded=0;orthogonalLoop=1;jettySize=auto;html=1;exitX=0.5;exitY=1;exitDx=0;exitDy=0;" edge="1" parent="1" source="ScZe47sJM7jAqU2eX7d--4" target="ScZe47sJM7jAqU2eX7d--7">
          <mxGeometry relative="1" as="geometry" />
        </mxCell>
        <mxCell id="ScZe47sJM7jAqU2eX7d--4" value="int a,b" style="shape=parallelogram;html=1;strokeWidth=2;perimeter=parallelogramPerimeter;whiteSpace=wrap;rounded=1;arcSize=12;size=0.23;" vertex="1" parent="1">
          <mxGeometry x="336" y="130" width="156" height="60" as="geometry" />
        </mxCell>
        <mxCell id="ScZe47sJM7jAqU2eX7d--5" style="edgeStyle=orthogonalEdgeStyle;rounded=0;orthogonalLoop=1;jettySize=auto;html=1;exitX=1;exitY=0.5;exitDx=0;exitDy=0;exitPerimeter=0;entryX=0.5;entryY=0;entryDx=0;entryDy=0;" edge="1" parent="1" source="ScZe47sJM7jAqU2eX7d--7" target="ScZe47sJM7jAqU2eX7d--10">
          <mxGeometry relative="1" as="geometry">
            <mxPoint x="570" y="270" as="targetPoint" />
          </mxGeometry>
        </mxCell>
        <mxCell id="ScZe47sJM7jAqU2eX7d--6" style="edgeStyle=orthogonalEdgeStyle;rounded=0;orthogonalLoop=1;jettySize=auto;html=1;exitX=0.5;exitY=1;exitDx=0;exitDy=0;exitPerimeter=0;" edge="1" parent="1" source="ScZe47sJM7jAqU2eX7d--7" target="ScZe47sJM7jAqU2eX7d--16">
          <mxGeometry relative="1" as="geometry">
            <mxPoint x="413.9310344827586" y="410" as="targetPoint" />
          </mxGeometry>
        </mxCell>
        <mxCell id="ScZe47sJM7jAqU2eX7d--7" value="b==0" style="strokeWidth=2;html=1;shape=mxgraph.flowchart.decision;whiteSpace=wrap;" vertex="1" parent="1">
          <mxGeometry x="346" y="220" width="136" height="100" as="geometry" />
        </mxCell>
        <mxCell id="ScZe47sJM7jAqU2eX7d--8" style="edgeStyle=orthogonalEdgeStyle;rounded=0;orthogonalLoop=1;jettySize=auto;html=1;exitX=1;exitY=0;exitDx=0;exitDy=0;" edge="1" parent="1" source="ScZe47sJM7jAqU2eX7d--10">
          <mxGeometry relative="1" as="geometry">
            <mxPoint x="630" y="310" as="targetPoint" />
          </mxGeometry>
        </mxCell>
        <mxCell id="ScZe47sJM7jAqU2eX7d--9" style="edgeStyle=orthogonalEdgeStyle;rounded=0;orthogonalLoop=1;jettySize=auto;html=1;exitX=0.5;exitY=1;exitDx=0;exitDy=0;" edge="1" parent="1">
          <mxGeometry relative="1" as="geometry">
            <mxPoint x="414" y="490" as="targetPoint" />
            <mxPoint x="532" y="370" as="sourcePoint" />
            <Array as="points">
              <mxPoint x="532" y="490" />
              <mxPoint x="422" y="490" />
              <mxPoint x="414" y="491" />
            </Array>
          </mxGeometry>
        </mxCell>
        <mxCell id="ScZe47sJM7jAqU2eX7d--10" value="&quot;Imposible&quot;" style="shape=parallelogram;html=1;strokeWidth=2;perimeter=parallelogramPerimeter;whiteSpace=wrap;rounded=1;arcSize=12;size=0.23;" vertex="1" parent="1">
          <mxGeometry x="510" y="330" width="100" height="60" as="geometry" />
        </mxCell>
        <mxCell id="ScZe47sJM7jAqU2eX7d--11" value="" style="endArrow=classic;html=1;rounded=0;" edge="1" parent="1">
          <mxGeometry width="50" height="50" relative="1" as="geometry">
            <mxPoint x="530" y="100" as="sourcePoint" />
            <mxPoint x="492" y="130" as="targetPoint" />
          </mxGeometry>
        </mxCell>
        <mxCell id="ScZe47sJM7jAqU2eX7d--12" value="SI" style="text;strokeColor=none;align=center;fillColor=none;html=1;verticalAlign=middle;whiteSpace=wrap;rounded=0;" vertex="1" parent="1">
          <mxGeometry x="482" y="240" width="60" height="30" as="geometry" />
        </mxCell>
        <mxCell id="ScZe47sJM7jAqU2eX7d--13" value="NO" style="text;strokeColor=none;align=center;fillColor=none;html=1;verticalAlign=middle;whiteSpace=wrap;rounded=0;" vertex="1" parent="1">
          <mxGeometry x="400" y="330" width="60" height="30" as="geometry" />
        </mxCell>
        <mxCell id="ScZe47sJM7jAqU2eX7d--14" style="edgeStyle=orthogonalEdgeStyle;rounded=0;orthogonalLoop=1;jettySize=auto;html=1;exitX=1;exitY=0;exitDx=0;exitDy=0;" edge="1" parent="1" source="ScZe47sJM7jAqU2eX7d--16">
          <mxGeometry relative="1" as="geometry">
            <mxPoint x="470" y="360" as="targetPoint" />
          </mxGeometry>
        </mxCell>
        <mxCell id="ScZe47sJM7jAqU2eX7d--15" style="edgeStyle=orthogonalEdgeStyle;rounded=0;orthogonalLoop=1;jettySize=auto;html=1;exitX=0.5;exitY=1;exitDx=0;exitDy=0;" edge="1" parent="1" source="ScZe47sJM7jAqU2eX7d--16">
          <mxGeometry relative="1" as="geometry">
            <mxPoint x="413.9310344827586" y="520.0000000000001" as="targetPoint" />
          </mxGeometry>
        </mxCell>
        <mxCell id="ScZe47sJM7jAqU2eX7d--16" value="a/b" style="shape=parallelogram;html=1;strokeWidth=2;perimeter=parallelogramPerimeter;whiteSpace=wrap;rounded=1;arcSize=12;size=0.23;" vertex="1" parent="1">
          <mxGeometry x="364.0010344827586" y="380" width="100" height="60" as="geometry" />
        </mxCell>
        <mxCell id="ScZe47sJM7jAqU2eX7d--17" value="Fin" style="strokeWidth=2;html=1;shape=mxgraph.flowchart.terminator;whiteSpace=wrap;" vertex="1" parent="1">
          <mxGeometry x="364" y="520" width="100" height="60" as="geometry" />
        </mxCell>
      </root>
    </mxGraphModel>
  </diagram>
</mxfile>
